<svg width="475" height="475" viewBox="0 0 475 475" fill="none" xmlns="http://www.w3.org/2000/svg">
<rect width="475" height="475" rx="30" fill="black"/>
<path d="M246.875 467L251.375 465.5V311L126 30L120.875 28.5L118 27H117.875L118 29C118.044 29.2455 118.156 29.3414 118.375 29.5C119.208 30 120.875 31.1 120.875 31.5C120.875 31.9 120.542 36 120.375 38L119 48.5L118.5 49.5C118.333 50.3333 118.775 52.1 118.375 52.5C117.975 52.9 117.875 54 117.875 54.5L117.5 64.5C117.5 64.9 116.208 66 115.375 66.5V67.5C115.042 68.1667 114.375 69.6 114.375 70C114.375 70.5 114.375 72 113.875 73C113.375 74 113.875 76 113.875 76.5V80.5C113.875 81.5 113.375 82 112.875 83C112.375 84 112.5 79.5 112.5 79.5C112.5 79.5 109.91 87.7993 108 89.5C107.15 90.2571 103.596 91.6917 102.5 92C101.372 92.3172 101 87.5 100 86.5C99 85.5 94.375 86.5 96 86.5C97.625 86.5 98.375 88 98.375 88C98.375 88 99.3489 89.4488 99.375 90.5C99.395 91.3048 98.9578 91.6992 98.875 92.5C98.8147 93.0827 99.0602 93.4443 98.875 94C98.613 94.7859 97.375 95.5 97.375 95.5C97.375 95.5 96.156 95.8047 95.375 96C94.594 96.1953 94.016 96.0128 93.375 96.5C93.1551 96.6671 93.75 97.0001 92.875 97.0001C92 97.0001 92.375 97.0001 92.375 97.0001C92.375 97.0001 93.875 97.0001 94.375 97.0001C94.875 97.0001 97.375 97.5001 97.375 97.5001L98.375 98.0001L99.375 100.5L98.875 104C98.875 104 98.875 104.5 98.375 105.5C97.875 106.5 96.375 105.5 96.375 105.5C96.375 105.5 94.875 108 95.375 106C95.875 104 93.875 109 93.875 109C93.875 109 93.875 111.438 93.875 113C94.2655 113.391 94.875 114 94.875 114C95.275 114.4 95.0417 115.167 94.875 115.5C94.875 116 94.775 117.1 94.375 117.5C93.975 117.9 93.875 120 93.875 121C93.875 121 94.0417 125 94.375 128.5C94.7083 132 94.875 139 94.875 139C94.875 139 94.0734 141.711 93.875 143.5C93.5514 146.418 94.375 151 94.375 151C94.375 151 94.875 151.5 94.875 152C94.875 152.586 94.875 153.5 94.875 153.5C94.875 154.5 94.375 154 93.875 154C93.375 154 92.875 154 91.875 153.5C90.875 153 91.375 154 90.375 154.5C89.375 155 88.875 154.5 88.875 154.5L85.875 155C85.875 155 85.375 155 84.375 154C83.375 153 83.875 154 83.375 152.5C82.875 151 83.375 151.5 83.375 151V149.5C83.375 149.5 83.375 148.586 83.375 148C83.375 147 82.375 147.5 82.375 147.5C82.375 147.5 82.375 148 82.875 148.5C83.375 149 82.875 149.5 82.375 150C81.875 150.5 81.875 151 80.875 152.5C79.875 154 79.875 153 79.375 154C78.875 155 78.875 155 79.375 156.5C79.875 158 80.375 157.5 80.875 158C81.375 158.5 82.875 158 84.375 158C85.875 158 85.875 158 86.875 157.5C87.875 157 87.875 157 88.875 157.5C89.875 158 89.875 157.5 91.875 158.5C93.875 159.5 93.375 158.5 94.375 158.5C95.375 158.5 95.875 158.5 96.375 158C96.875 157.5 97.375 157 98.375 157H100.375L103.375 159L104.875 162.5L104.375 177.5V204.5L104.875 215.5L105.375 248.5L104.875 281.5L104.375 297.5L103.875 299V311V320.5L103.375 323.5L101.375 326V331L103.375 332.5L103.875 335.5L104.375 341L103.875 348V357V366L104.375 372.5V378.5L105.375 385C105.375 385 106.542 392.5 105.375 394C104.208 395.5 101.675 398.7 100.875 399.5C99.875 400.5 99.375 400.5 99.375 401C99.375 401.5 96.375 401.5 95.875 401.5C95.375 401.5 92.875 402 92.875 402.5C92.875 402.9 92.2083 403.333 91.875 403.5C91.875 403.5 91.1609 404.738 90.375 405C89.8193 405.185 89.75 405.5 88.875 405C88 404.5 90.0466 405.724 90.875 406C93.4947 406.873 96.3903 402.672 97.875 405C98.5136 406.002 98.0402 406.861 98.375 408C98.8673 409.676 100.898 410.334 100.375 412C100.164 412.672 99.375 413.5 99.375 413.5C99.375 413.5 98.5943 414.589 97.875 415C97.0105 415.494 96.3706 415.5 95.375 415.5C94.3794 415.5 94 415 92.875 415C91.75 415 91.5 413 91.875 416C92.25 419 93.373 417.016 93.875 418C94.2409 418.717 94.375 420 94.375 420C94.375 420 94.9985 421.512 94.875 422.5C94.7984 423.113 94.375 424 94.375 424C94.875 423.333 95.775 421.9 95.375 421.5C94.875 421 96.875 419.5 96.875 419.5L98.375 418.5C98.375 418.5 98.475 417.4 98.875 417C99.275 416.6 100.042 416.833 100.375 417L101.375 418C101.375 418 102.823 419.896 103.875 421C104.256 421.4 104.484 421.609 104.875 422C105.461 422.586 105.855 422.855 106.375 423.5C106.817 424.048 107 424.5 107.375 425C107.75 425.5 106.5 427.5 103.5 426.5C100.5 425.5 107.841 428.818 110.875 429.5C115.641 430.572 122.542 429.167 123.375 429C124.208 428.833 125.975 428.5 126.375 428.5C126.775 428.5 127.208 427.167 127.375 426.5C127.542 425.833 131.375 424.5 131.375 424.5C135.042 424.333 142.475 424 142.875 424C143.375 424 145.875 425.5 146.375 426C146.775 426.4 144.5 429.5 143.5 429.5H156.375C156.875 429.5 160.875 428.5 160.875 428C160.875 427.6 162.208 426.167 162.875 425.5L164.875 423C165.375 422.167 166.375 420.4 166.375 420C166.375 419.5 168.875 418.5 169.375 418.5C169.775 418.5 171.542 420.167 172.375 421C173.542 421.833 175.975 423.6 176.375 424C176.875 424.5 180.875 424 181.375 424C181.775 424 182.542 423.333 182.875 423L185.875 420L190.375 419.5C190.875 420.167 191.975 421.6 192.375 422C192.775 422.4 195.208 422.167 196.375 422H200.875C201.275 422 202.708 422.667 203.375 423C203.875 423.667 204.875 425.1 204.875 425.5C204.875 425.9 206.208 428.333 206.875 429.5V427.5L206.375 424C206.875 423.167 208.075 421.3 208.875 420.5C209.875 419.5 208.875 420.5 211.375 421L212.875 422.5C213.375 423.667 214.775 426.2 216.375 427L219.375 428.5C221.375 429.5 219.875 428.5 221.375 429.5C222.875 430.5 221.875 429.5 223.375 428.5C224.875 427.5 225.375 428 226.875 427.5C228.375 427 228.375 427 230.375 427C232.375 427 233.875 428 234.375 428C234.775 428 235.542 429.667 235.875 430.5V437L235.375 441C235.042 444 234.475 450.2 234.875 451C235.275 451.8 237.042 452.667 237.875 453L241.375 454.5C242.375 455.333 244.375 457.1 244.375 457.5C244.375 458 244.875 460.5 244.875 461C244.875 461.4 242.542 461.167 241.375 461L243.875 463.5C244.875 464.5 243.375 466 243.875 465.5C244.275 465.1 244.375 465.333 244.375 465.5C244.875 465.5 245.975 465.7 246.375 466.5C246.568 466.887 246.536 467.211 246.413 467.462L246.875 467Z" fill="#AF2F2F"/>
<path d="M243.875 463.5C244.875 464.5 243.375 466 243.875 465.5C244.275 465.1 244.375 465.333 244.375 465.5C244.875 465.5 245.975 465.7 246.375 466.5C246.568 466.887 246.536 467.211 246.413 467.462M243.875 463.5C243.075 462.7 241.875 461.5 241.375 461M243.875 463.5L241.375 461M241.375 461C242.542 461.167 244.875 461.4 244.875 461C244.875 460.5 244.375 458 244.375 457.5C244.375 457.1 242.375 455.333 241.375 454.5L237.875 453C237.042 452.667 235.275 451.8 234.875 451C234.475 450.2 235.042 444 235.375 441L235.875 437V430.5C235.542 429.667 234.775 428 234.375 428C233.875 428 232.375 427 230.375 427C228.375 427 228.375 427 226.875 427.5C225.375 428 224.875 427.5 223.375 428.5C221.875 429.5 222.875 430.5 221.375 429.5C219.875 428.5 221.375 429.5 219.375 428.5M219.375 428.5C217.375 427.5 218.375 428 216.375 427M219.375 428.5L216.375 427M216.375 427C214.775 426.2 213.375 423.667 212.875 422.5L211.375 421C208.875 420.5 209.875 419.5 208.875 420.5C208.075 421.3 206.875 423.167 206.375 424L206.875 427.5V429.5C206.208 428.333 204.875 425.9 204.875 425.5C204.875 425.1 203.875 423.667 203.375 423C202.708 422.667 201.275 422 200.875 422M200.875 422C200.475 422 197.708 422 196.375 422M200.875 422H196.375M196.375 422C195.208 422.167 192.775 422.4 192.375 422C191.975 421.6 190.875 420.167 190.375 419.5L185.875 420L182.875 423C182.542 423.333 181.775 424 181.375 424C180.875 424 176.875 424.5 176.375 424C175.975 423.6 173.542 421.833 172.375 421C171.542 420.167 169.775 418.5 169.375 418.5C168.875 418.5 166.375 419.5 166.375 420C166.375 420.4 165.375 422.167 164.875 423L162.875 425.5C162.208 426.167 160.875 427.6 160.875 428C160.875 428.5 156.875 429.5 156.375 429.5M156.375 429.5C155.975 429.5 146.167 429.5 143.5 429.5M156.375 429.5H143.5M143.5 429.5C144.5 429.5 146.775 426.4 146.375 426C145.875 425.5 143.375 424 142.875 424C142.475 424 135.042 424.333 131.375 424.5C131.375 424.5 127.542 425.833 127.375 426.5C127.208 427.167 126.775 428.5 126.375 428.5C125.975 428.5 124.208 428.833 123.375 429C122.542 429.167 115.641 430.572 110.875 429.5C107.841 428.818 100.5 425.5 103.5 426.5C106.5 427.5 107.75 425.5 107.375 425C107 424.5 106.817 424.048 106.375 423.5C105.855 422.855 105.461 422.586 104.875 422C104.484 421.609 104.256 421.4 103.875 421C102.823 419.896 101.375 418 101.375 418L100.375 417C100.042 416.833 99.275 416.6 98.875 417C98.475 417.4 98.375 418.5 98.375 418.5L96.875 419.5C96.875 419.5 94.875 421 95.375 421.5C95.775 421.9 94.875 423.333 94.375 424C94.375 424 94.7984 423.113 94.875 422.5C94.9985 421.512 94.375 420 94.375 420C94.375 420 94.2409 418.717 93.875 418C93.373 417.016 92.25 419 91.875 416C91.5 413 91.75 415 92.875 415C94 415 94.3794 415.5 95.375 415.5C96.3706 415.5 97.0105 415.494 97.875 415C98.5943 414.589 99.375 413.5 99.375 413.5C99.375 413.5 100.164 412.672 100.375 412C100.898 410.334 98.8673 409.676 98.375 408C98.0402 406.861 98.5136 406.002 97.875 405C96.3903 402.672 93.4947 406.873 90.875 406C90.0466 405.724 88 404.5 88.875 405C89.75 405.5 89.8193 405.185 90.375 405C91.1609 404.738 91.875 403.5 91.875 403.5C92.2083 403.333 92.875 402.9 92.875 402.5C92.875 402 95.375 401.5 95.875 401.5C96.375 401.5 99.375 401.5 99.375 401C99.375 400.5 99.875 400.5 100.875 399.5C101.675 398.7 104.208 395.5 105.375 394C106.542 392.5 105.375 385 105.375 385L104.375 378.5V372.5L103.875 366V357V348L104.375 341L103.875 335.5L103.375 332.5L101.375 331V326L103.375 323.5L103.875 320.5V311V299L104.375 297.5L104.875 281.5L105.375 248.5L104.875 215.5L104.375 204.5V177.5L104.875 162.5L103.375 159L100.375 157M100.375 157C100.042 157 99.175 157 98.375 157M100.375 157H98.375M98.375 157C97.375 157 96.875 157.5 96.375 158C95.875 158.5 95.375 158.5 94.375 158.5C93.375 158.5 93.875 159.5 91.875 158.5C89.875 157.5 89.875 158 88.875 157.5C87.875 157 87.875 157 86.875 157.5C85.875 158 85.875 158 84.375 158C82.875 158 81.375 158.5 80.875 158C80.375 157.5 79.875 158 79.375 156.5C78.875 155 78.875 155 79.375 154C79.875 153 79.875 154 80.875 152.5C81.875 151 81.875 150.5 82.375 150C82.875 149.5 83.375 149 82.875 148.5C82.375 148 82.375 147.5 82.375 147.5C82.375 147.5 83.375 147 83.375 148M83.375 148C83.375 149 83.375 148.5 83.375 149.5M83.375 148C83.375 148.586 83.375 149.5 83.375 149.5M83.375 149.5C83.375 150.5 83.375 150.5 83.375 151M83.375 149.5V151M83.375 151C83.375 151.5 82.875 151 83.375 152.5C83.875 154 83.375 153 84.375 154C85.375 155 85.875 155 85.875 155L88.875 154.5C88.875 154.5 89.375 155 90.375 154.5C91.375 154 90.875 153 91.875 153.5C92.875 154 93.375 154 93.875 154C94.375 154 94.875 154.5 94.875 153.5M94.875 153.5C94.875 152.5 94.875 152.5 94.875 152M94.875 153.5C94.875 153.5 94.875 152.586 94.875 152M94.875 152C94.875 151.5 94.375 151 94.375 151C94.375 151 93.5514 146.418 93.875 143.5C94.0734 141.711 94.875 139 94.875 139C94.875 139 94.7083 132 94.375 128.5C94.0417 125 93.875 121 93.875 121C93.875 120 93.975 117.9 94.375 117.5C94.775 117.1 94.875 116 94.875 115.5C95.0417 115.167 95.275 114.4 94.875 114M94.875 114C94.475 113.6 94.0417 113.167 93.875 113M94.875 114C94.875 114 94.2655 113.391 93.875 113M93.875 113C93.875 111.438 93.875 109 93.875 109C93.875 109 95.875 104 95.375 106C94.875 108 96.375 105.5 96.375 105.5C96.375 105.5 97.875 106.5 98.375 105.5C98.875 104.5 98.875 104 98.875 104L99.375 100.5L98.375 98.0001L97.375 97.5001C97.375 97.5001 94.875 97.0001 94.375 97.0001C93.875 97.0001 92.375 97.0001 92.375 97.0001C92.375 97.0001 92 97.0001 92.875 97.0001C93.75 97.0001 93.1551 96.6671 93.375 96.5C94.016 96.0128 94.594 96.1953 95.375 96C96.156 95.8047 97.375 95.5 97.375 95.5C97.375 95.5 98.613 94.7859 98.875 94C99.0602 93.4443 98.8147 93.0827 98.875 92.5C98.9578 91.6992 99.395 91.3048 99.375 90.5C99.3489 89.4488 98.375 88 98.375 88C98.375 88 97.625 86.5 96 86.5C94.375 86.5 99 85.5 100 86.5C101 87.5 101.372 92.3172 102.5 92C103.596 91.6917 107.15 90.2571 108 89.5C109.91 87.7993 112.5 79.5 112.5 79.5C112.5 79.5 112.375 84 112.875 83C113.375 82 113.875 81.5 113.875 80.5M113.875 80.5C113.875 79.5 113.875 77 113.875 76.5M113.875 80.5V76.5M113.875 76.5C113.875 76 113.375 74 113.875 73C114.375 72 114.375 70.5 114.375 70C114.375 69.6 115.042 68.1667 115.375 67.5V66.5C116.208 66 117.5 64.9 117.5 64.5M117.5 64.5C117.5 64.1 117.875 57.6667 117.875 54.5M117.5 64.5L117.875 54.5M117.875 54.5C117.875 54 117.975 52.9 118.375 52.5C118.775 52.1 118.333 50.3333 118.5 49.5L119 48.5L120.375 38C120.542 36 120.875 31.9 120.875 31.5C120.875 31.1 119.208 30 118.375 29.5C118.156 29.3414 118.044 29.2455 118 29L117.875 27H118L120.875 28.5L126 30L251.375 311V465.5L246.875 467L246.413 467.462M246.413 467.462C246.282 467.73 246.047 467.914 245.875 468L246.413 467.462Z" stroke="#AF2F2F" stroke-width="0.1"/>
<path d="M118 29C118 29 116.308 17.7202 118.375 11C118.993 8.98992 120.375 6 120.375 6L119.875 8V8.5L120.375 9.5L121.375 10.5L121.875 12L122.375 14L122.875 16V23L123.875 25L123.375 23.5L123.875 23H125.875L127.875 20.5L128.875 18L131.375 17L135.375 16.5L139.875 17.5H136.875L135.375 18L134.875 19L135.875 24.5V27.5V29.5L136.875 31L137.375 32.5L138.875 33.5L142.375 34.5L144.375 32.5L146.875 31.5L148.375 30L149.375 29L149.875 27L149.375 25.5L146.875 24.5L146.375 23L146.875 18L144.375 18.5L141.875 17L140.875 12L142.375 6V9.5L145.875 10L150.375 12.5L151.875 14.5L152.875 21V27.5L151.875 29.5L152.375 36.5V39.5L151.875 47L156.375 48L156.875 50.5L158.375 52.5L160.375 54L162.375 54.5L165.375 53.5L166.375 51.5L166.875 49.5L168.875 47L172.375 46.5L175.875 47L173.375 47.5L172.375 48.5L171.875 50.5L170.875 52.5L171.375 54V55.5L171.875 57L172.875 59L175.375 58.5L177.875 57L178.875 55.5L179.875 53L180.375 52V53.5L180.875 54.5L181.875 55L182.875 56.5L183.375 57.5V59L184.375 60.5L185.375 61.5L185.875 62L186.875 69L188.375 71.5V74L189.375 75.5L188.875 78L185.875 80.5L186.375 83.5V85.5L186.875 88L187.875 90.5L192.375 93L199.875 91H201.875L199.875 92L200.375 94L200.875 96.5C201.375 96.8333 202.475 97.5 202.875 97.5C203.275 97.5 205.375 96.1667 206.375 95.5L211.375 92L214.875 90.5L215.875 88.5L221.375 87L224.375 84.5L227.875 83.5L232.875 82.5L234.375 81L235.875 76L236.375 68L234.875 63.5L233.875 57L234.375 50.5L240.375 47L249.375 47.5L251.875 47H255.875L258.875 47.5L256.875 48L255.375 48.5L254.375 50L250.875 51L244.875 51.5L241.875 53L238.875 55.5L239.375 59.5L238.875 66.5L241.375 67.5H244.375L248.875 66.5L250.375 64L253.375 62L259.375 62.5L261.875 62L264.375 57.5L265.875 54.5L269.375 54L270.875 52.5L272.375 52L273.875 47L277.375 46.5H280.375L281.875 48L284.375 47.5L287.375 46.5L290.875 47L291.875 49L292.375 52L295.375 54H297.875L299.875 52.5L301.875 52V49.5L303.875 47.5H305.875L306.875 49.5L305.875 51.5L302.375 52L301.875 52.5L301.375 54.5L300.375 56V58L301.375 59.5L302.375 61C302.708 61.1667 303.475 61.6 303.875 62C304.275 62.4 305.708 66.1667 306.375 68V70.5L305.375 81C305.208 79.8333 304.875 77.4 304.875 77C304.875 76.5 305.375 74 304.875 74C304.375 74 302.875 73 302.875 72.5C302.875 72.1 301.542 71.3333 300.875 71L297.875 71.5L295.875 73L295.375 75.5L295.875 80L297.875 81.5L299.875 80L300.875 78.5L301.375 80.5L301.875 82.5L301.375 90.5L297.875 91.5L291.875 90.5L287.375 90L286.875 92L285.875 94L284.375 95L282 96.5L281 100C280.667 100.667 279.246 104.1 279.246 104.5C279.246 104.9 278.708 103.167 278.875 104C279.042 104.833 280.875 105 280.875 105C280.875 105 282.361 105.67 282.875 106.5C283.2 107.025 283.279 107.39 283.375 108C283.466 108.579 283.606 108.962 283.375 109.5C283.157 110.008 282.708 110.059 282.375 110.5C281.741 111.339 281.375 113 281.375 113C281.375 113 281.024 114.031 281.375 114.5C281.637 114.849 281.98 114.814 282.375 115C283.327 115.447 286 116 284.875 116C283.75 116 284.773 116.623 284.875 117C285.234 118.333 287.014 117.732 288.375 117.5C289.666 117.28 290.672 117.105 291.375 116C291.707 115.479 291.375 115.5 291.875 114.5C292.375 113.5 293.375 111 293.375 111C293.375 111 295.708 110.167 296.875 110C298.042 109.833 297.389 107.863 298.375 107C299.032 106.425 299.555 106.299 300.375 106C301.131 105.724 301.603 105.729 302.375 105.5C302.967 105.324 303.408 105.404 303.875 105C304.629 104.349 304.875 102.667 304.375 102.5C303.875 102.333 302.875 101.5 302.875 101.5C302.875 101.5 303.375 96 301.875 94.5C300.375 93 302.5 90 302.375 91.5C302.25 93 302.984 90.8905 303.375 90.5C303.766 90.1095 303.909 89.7965 304.375 89.5C305.054 89.0678 306.375 89 306.375 89C306.375 89 305.577 89.4861 305.375 90C305.08 90.7491 305.71 91.2121 305.875 92C306.159 93.3512 306.285 94.1222 306.375 95.5C306.451 96.6691 305.875 102 306.375 98.5C306.875 95 306.783 101.591 306.375 103.5C305.973 105.381 304.508 106.082 304.375 108C304.348 108.39 304.375 109 304.375 109V111C304.375 111.5 305.375 112 305.375 112.5C305.375 112.9 305 115.5 305.875 114C306.75 112.5 303.875 118.5 306.375 119C308.875 119.5 305.248 120 304.375 120C303.502 120 302.75 117 302.375 119C302 121 301.993 116.48 300.875 115.5C300.218 114.924 299.706 114.767 298.875 114.5C297.202 113.962 296.048 113.962 294.375 114.5C293.544 114.767 293.034 114.927 292.375 115.5C291.116 116.595 292.284 118.606 290.875 119.5C290.034 120.033 289.042 119.833 288.375 120C287.708 120.167 286.375 120 286.375 120C286.375 120 285.042 118.5 284.375 118C284.375 118 283.564 117.145 282.875 117C282.493 116.92 282.253 116.902 281.875 117C280.93 117.244 281.189 118.461 280.375 119C279.385 119.656 277.375 119.5 277.375 119.5C276.708 119.5 275.075 119.7 273.875 120.5C272.675 121.3 274.333 124.167 273.5 124.5L273 128.5C273 128.9 271.333 130.167 271.5 130.5C271.5 130.5 267 142 270.375 141C273.75 140 269.817 141.669 269.375 142C268.387 142.741 267.534 142.572 266.375 143C265.389 143.364 269 145 269 145L271 147.5C271 147.5 267.765 143.419 265.375 148.5C262.985 153.581 273.5 152 269 153C264.5 154 262.716 153.257 264.5 154C265.419 154.383 264.375 158 265.375 155C266.375 152 265.526 160.497 267.875 162.5C268.411 162.957 268.542 162.833 269.375 163.5C270.208 164.167 272.375 165.5 272.375 165.5C272.375 165.5 274.508 165.5 275.875 165.5C275.727 165.276 280.875 163.731 280.875 164C280.875 164.269 282.375 163.5 282.375 163.5C282.375 163.5 280.68 164.878 280.875 166C280.995 166.694 281.875 167.5 281.875 167.5C282.042 167.667 282.475 168 282.875 168C283.275 168 284.708 168.667 285.375 169C285.875 169.167 286.975 169.6 287.375 170C287.875 170.5 290.375 170 290.375 169.5C290.375 169.1 291.375 168.333 291.875 168C291.875 168 293.25 167.5 292.375 168C291.5 168.5 291.972 169.816 291.875 171C291.779 172.168 291.567 172.87 291.875 174C292.105 174.842 292.875 176 292.875 176L293.875 178.5L294.375 180L295.375 181.5C295.375 181.5 296.736 183 297.875 183C299.014 183 299.585 182.319 300.375 181.5C301.284 180.557 301.046 179.514 301.875 178.5C302.666 177.532 303.661 177.526 304.375 176.5C305.187 175.333 305.05 174.384 305.375 173C305.603 172.031 306.25 171 305.875 170.5C305.5 170 306.21 171.096 306.375 171.5C306.896 172.779 306.794 173.622 306.875 175C306.932 175.975 306.875 177.5 306.875 177.5C306.875 177.5 306.42 179.687 305.875 181C305.54 181.807 305.172 182.179 304.875 183C304.013 185.388 304.224 187.046 304.875 189.5C305.033 190.097 304.25 191.5 305.375 191C306.5 190.5 302.75 193 303.875 193C305 193 302.512 193.008 301.875 193.5C301.184 194.034 301.5 195 301.5 195C301.5 195 309 194.5 308.5 195C308 195.5 307 196.1 307 196.5C307 196.9 311.278 195.595 312 196C312.702 196.394 314.5 195.5 313 196.5C310.475 198.183 314 199 312.5 199.5C311 200 318 201.5 319 201C320 200.5 315.875 203.5 315.875 203.5C315.875 203.5 321.704 202.243 325.5 202C328.179 201.828 332.375 202 332.375 202L337.375 203.5L343.375 204L344.375 203L343.375 208L344.375 209.5L347.375 213.5L352.875 214L354.875 216L358.875 217L360.875 216.5L359.375 218L358.875 220L357.875 222.5L357.375 225L357.875 228.5L360.875 229.5L362.375 228.5C362.875 227.833 363.975 226.5 364.375 226.5C364.775 226.5 365.875 224.5 366.375 223.5L367.375 226.5L367.875 229L367.375 230.5L364.375 233L361.375 237C360.542 237.833 358.875 239.7 358.875 240.5C358.875 241.3 356.542 245.833 355.375 248C354.208 249.667 348.75 257 352.375 253.5C356 250 366.5 245 362.5 247.5C358.5 250 356.475 260 356.875 260C357.375 260 358.875 259 358.875 258.5C358.875 258 360.375 255 360.875 254.5C361.275 254.1 362.708 250.667 363.375 249L365.375 245L368.375 239.5L368.875 236.5V236L369.375 239.5L370.375 243V256L370.875 267L372.375 273.5V281.5L374.375 284.5V287C374.208 287.667 373.875 289.1 373.875 289.5C373.875 290 373.875 291 373.375 291.5C372.975 291.9 371.542 293 370.875 293.5L368.875 294L366.875 295V297L367.375 298.5L368.375 299L369.375 299.5L369.875 304L368.875 305.5L367.875 307L368.875 309L369.375 310.5L370.375 311.5L371.375 313V317.5L371.875 318V323L372.875 325L373.375 327.5L374.375 328.5L375.875 351.5L375.375 356.5C375.042 357.167 374.375 358.6 374.375 359C374.375 359.4 373.708 361.167 373.375 362L371.875 364.5L373.875 367.5L377.875 369.5L379.375 371V375.5C379.042 377.167 378.175 380.5 377.375 380.5C376.575 380.5 375.708 379.5 375.375 379H371.375L369.875 380.5L368.375 383L367.875 384.5V388L369.375 396L371.375 397.5H374.375C374.775 397.5 376.875 397.167 377.875 397L379.875 394.5L382.375 391L382.875 390L383.375 389L383.875 391.5L384.875 396V401L385.375 408L384.875 414.5L384.375 418.5L382.375 423.5L379.375 424L376.375 422.5H374.875L372.375 423.5C371.875 423.5 370.775 423.8 370.375 425C369.975 426.2 369.208 427.833 368.875 428.5L357.875 429L352.875 427H348.875L344.375 426L342.875 424.5H339.875C339.475 424.5 337.375 425.167 336.375 425.5L333.875 428L332.875 428.5L331.375 427L330.875 424.5L327.875 423H326.5L324.375 423.5L320.5 425L318.375 428L311.875 430L306.375 430.5H302.375L301.375 431.5L300.375 435.5L304.875 442L305.875 444.5L303.875 452.5L300.375 453.5L299.875 455.5L297.875 452.5L295.875 454C295.208 454.667 293.875 456.1 293.875 456.5C293.875 457 292.375 457.5 291.875 457.5H289.875L287.375 455.5C287.875 455.333 288.475 454.7 286.875 453.5C284.875 452 284.375 451.5 283.375 451.5H278.875C276.375 451.5 274.375 452 273.875 452.5C273.375 453 272.875 453 272.375 454C271.875 455 271.375 456 270.875 456.5C270.375 457 269.875 459 269.375 457.5C268.875 456 270.375 457 268.875 455C267.375 453 268.375 452.5 266.375 452.5H263.375C260.875 452.5 261.375 452 260.375 452.5C259.375 453 258.875 452.5 258.375 453.5C257.875 454.5 257.875 454 257.375 455.5C256.875 457 256.375 456.5 256.375 458C256.375 459.5 254.875 459 256.375 460.5L258.375 462.5C259.375 463.5 258.375 463 260.375 463.5C261.975 463.9 264.708 466 265.875 467L264.875 466.5C264.375 466 262.975 465.2 261.375 466C259.775 466.8 258.375 467.333 257.875 467.5L251.375 465.5V311.5L125.5 30C124.377 28.9542 123.331 28.518 118 29Z" fill="#9B0000"/>
<path d="M304.375 109C304.375 109 304.348 108.39 304.375 108C304.508 106.082 305.973 105.381 306.375 103.5C306.783 101.591 306.875 95 306.375 98.5C305.875 102 306.451 96.6691 306.375 95.5C306.285 94.1222 306.159 93.3512 305.875 92C305.71 91.2121 305.08 90.7491 305.375 90C305.577 89.4861 306.375 89 306.375 89C306.375 89 305.054 89.0678 304.375 89.5C303.909 89.7965 303.766 90.1095 303.375 90.5C302.984 90.8905 302.25 93 302.375 91.5C302.5 90 300.375 93 301.875 94.5C303.375 96 302.875 101.5 302.875 101.5C302.875 101.5 303.875 102.333 304.375 102.5C304.875 102.667 304.629 104.349 303.875 105C303.408 105.404 302.967 105.324 302.375 105.5C301.603 105.729 301.131 105.724 300.375 106C299.555 106.299 299.032 106.425 298.375 107C297.389 107.863 298.042 109.833 296.875 110C295.708 110.167 293.375 111 293.375 111C293.375 111 292.375 113.5 291.875 114.5C291.375 115.5 291.707 115.479 291.375 116C290.672 117.105 289.666 117.28 288.375 117.5C287.014 117.732 285.234 118.333 284.875 117C284.773 116.623 283.75 116 284.875 116C286 116 283.327 115.447 282.375 115C281.98 114.814 281.637 114.849 281.375 114.5C281.024 114.031 281.375 113 281.375 113C281.375 113 281.741 111.339 282.375 110.5C282.708 110.059 283.157 110.008 283.375 109.5C283.606 108.962 283.466 108.579 283.375 108C283.279 107.39 283.2 107.025 282.875 106.5C282.361 105.67 280.875 105 280.875 105C280.875 105 279.042 104.833 278.875 104C278.708 103.167 279.246 104.9 279.246 104.5C279.246 104.1 280.667 100.667 281 100L282 96.5L284.375 95L285.875 94L286.875 92L287.375 90L291.875 90.5L297.875 91.5L301.375 90.5L301.875 82.5L301.375 80.5L300.875 78.5L299.875 80L297.875 81.5L295.875 80L295.375 75.5L295.875 73L297.875 71.5L300.875 71C301.542 71.3333 302.875 72.1 302.875 72.5C302.875 73 304.375 74 304.875 74C305.375 74 304.875 76.5 304.875 77C304.875 77.4 305.208 79.8333 305.375 81L306.375 70.5V68C305.708 66.1667 304.275 62.4 303.875 62C303.475 61.6 302.708 61.1667 302.375 61L301.375 59.5L300.375 58V56L301.375 54.5L301.875 52.5L302.375 52L305.875 51.5L306.875 49.5L305.875 47.5H303.875L301.875 49.5V52L299.875 52.5L297.875 54H295.375L292.375 52L291.875 49L290.875 47L287.375 46.5L284.375 47.5L281.875 48L280.375 46.5H277.375L273.875 47L272.375 52L270.875 52.5L269.375 54L265.875 54.5L264.375 57.5L261.875 62L259.375 62.5L253.375 62L250.375 64L248.875 66.5L244.375 67.5H241.375L238.875 66.5L239.375 59.5L238.875 55.5L241.875 53L244.875 51.5L250.875 51L254.375 50L255.375 48.5L256.875 48L258.875 47.5L255.875 47H251.875L249.375 47.5L240.375 47L234.375 50.5L233.875 57L234.875 63.5L236.375 68L235.875 76L234.375 81L232.875 82.5L227.875 83.5L224.375 84.5L221.375 87L215.875 88.5L214.875 90.5L211.375 92L206.375 95.5C205.375 96.1667 203.275 97.5 202.875 97.5C202.475 97.5 201.375 96.8333 200.875 96.5L200.375 94L199.875 92L201.875 91H199.875L192.375 93L187.875 90.5L186.875 88L186.375 85.5V83.5L185.875 80.5L188.875 78L189.375 75.5L188.375 74V71.5L186.875 69L185.875 62L185.375 61.5L184.375 60.5L183.375 59V57.5L182.875 56.5L181.875 55L180.875 54.5L180.375 53.5V52L179.875 53L178.875 55.5L177.875 57L175.375 58.5L172.875 59L171.875 57L171.375 55.5V54L170.875 52.5L171.875 50.5L172.375 48.5L173.375 47.5L175.875 47L172.375 46.5L168.875 47L166.875 49.5L166.375 51.5L165.375 53.5L162.375 54.5L160.375 54L158.375 52.5L156.875 50.5L156.375 48L151.875 47L152.375 39.5V36.5L151.875 29.5L152.875 27.5V21L151.875 14.5L150.375 12.5L145.875 10L142.375 9.5V6L140.875 12L141.875 17L144.375 18.5L146.875 18L146.375 23L146.875 24.5L149.375 25.5L149.875 27L149.375 29L148.375 30L146.875 31.5L144.375 32.5L142.375 34.5L138.875 33.5L137.375 32.5L136.875 31L135.875 29.5V27.5V24.5L134.875 19L135.375 18L136.875 17.5H139.875L135.375 16.5L131.375 17L128.875 18L127.875 20.5L125.875 23H123.875L123.375 23.5L123.875 25L122.875 23V16L122.375 14L121.875 12L121.375 10.5L120.375 9.5L119.875 8.5V8L120.375 6C120.375 6 118.993 8.98992 118.375 11C116.308 17.7202 118 29 118 29C123.331 28.518 124.377 28.9542 125.5 30L251.375 311.5V465.5L257.875 467.5C258.375 467.333 259.775 466.8 261.375 466C262.975 465.2 264.375 466 264.875 466.5L265.875 467C264.708 466 261.975 463.9 260.375 463.5C258.375 463 259.375 463.5 258.375 462.5M304.375 109C304.375 109.5 304.375 110.6 304.375 111M304.375 109V111M304.375 111C304.375 111.5 305.375 112 305.375 112.5C305.375 112.9 305 115.5 305.875 114C306.75 112.5 303.875 118.5 306.375 119C308.875 119.5 305.248 120 304.375 120C303.502 120 302.75 117 302.375 119C302 121 301.993 116.48 300.875 115.5C300.218 114.924 299.706 114.767 298.875 114.5C297.202 113.962 296.048 113.962 294.375 114.5C293.544 114.767 293.034 114.927 292.375 115.5C291.116 116.595 292.284 118.606 290.875 119.5C290.034 120.033 289.042 119.833 288.375 120C287.708 120.167 286.375 120 286.375 120C286.375 120 285.042 118.5 284.375 118C284.375 118 283.564 117.145 282.875 117C282.493 116.92 282.253 116.902 281.875 117C280.93 117.244 281.189 118.461 280.375 119C279.385 119.656 277.375 119.5 277.375 119.5C276.708 119.5 275.075 119.7 273.875 120.5C272.675 121.3 274.333 124.167 273.5 124.5M273.5 124.5C273.5 126 273 128.1 273 128.5M273.5 124.5L273 128.5M273 128.5C273 128.9 271.333 130.167 271.5 130.5C271.5 130.5 267 142 270.375 141C273.75 140 269.817 141.669 269.375 142C268.387 142.741 267.534 142.572 266.375 143C265.389 143.364 269 145 269 145L271 147.5C271 147.5 267.765 143.419 265.375 148.5C262.985 153.581 273.5 152 269 153C264.5 154 262.716 153.257 264.5 154C265.419 154.383 264.375 158 265.375 155C266.375 152 265.526 160.497 267.875 162.5C268.411 162.957 268.542 162.833 269.375 163.5C270.208 164.167 272.375 165.5 272.375 165.5M272.375 165.5C272.375 165.5 274.875 165.5 275.875 165.5M272.375 165.5C272.375 165.5 274.508 165.5 275.875 165.5M275.875 165.5C275.727 165.276 280.875 163.731 280.875 164C280.875 164.269 282.375 163.5 282.375 163.5C282.375 163.5 280.68 164.878 280.875 166C280.995 166.694 281.875 167.5 281.875 167.5C282.042 167.667 282.475 168 282.875 168C283.275 168 284.708 168.667 285.375 169C285.875 169.167 286.975 169.6 287.375 170C287.875 170.5 290.375 170 290.375 169.5C290.375 169.1 291.375 168.333 291.875 168C291.875 168 293.25 167.5 292.375 168C291.5 168.5 291.972 169.816 291.875 171C291.779 172.168 291.567 172.87 291.875 174C292.105 174.842 292.875 176 292.875 176L293.875 178.5L294.375 180L295.375 181.5C295.375 181.5 296.736 183 297.875 183C299.014 183 299.585 182.319 300.375 181.5C301.284 180.557 301.046 179.514 301.875 178.5C302.666 177.532 303.661 177.526 304.375 176.5C305.187 175.333 305.05 174.384 305.375 173C305.603 172.031 306.25 171 305.875 170.5C305.5 170 306.21 171.096 306.375 171.5C306.896 172.779 306.794 173.622 306.875 175C306.932 175.975 306.875 177.5 306.875 177.5C306.875 177.5 306.42 179.687 305.875 181C305.54 181.807 305.172 182.179 304.875 183C304.013 185.388 304.224 187.046 304.875 189.5C305.033 190.097 304.25 191.5 305.375 191C306.5 190.5 302.75 193 303.875 193C305 193 302.512 193.008 301.875 193.5C301.184 194.034 301.5 195 301.5 195C301.5 195 309 194.5 308.5 195C308 195.5 307 196.1 307 196.5C307 196.9 311.278 195.595 312 196C312.702 196.394 314.5 195.5 313 196.5C310.475 198.183 314 199 312.5 199.5C311 200 318 201.5 319 201C320 200.5 315.875 203.5 315.875 203.5C315.875 203.5 321.704 202.243 325.5 202C328.179 201.828 332.375 202 332.375 202L337.375 203.5L343.375 204L344.375 203L343.375 208L344.375 209.5L347.375 213.5L352.875 214L354.875 216L358.875 217L360.875 216.5L359.375 218L358.875 220L357.875 222.5L357.375 225L357.875 228.5L360.875 229.5L362.375 228.5C362.875 227.833 363.975 226.5 364.375 226.5C364.775 226.5 365.875 224.5 366.375 223.5L367.375 226.5L367.875 229L367.375 230.5L364.375 233L361.375 237C360.542 237.833 358.875 239.7 358.875 240.5C358.875 241.3 356.542 245.833 355.375 248C354.208 249.667 348.75 257 352.375 253.5C356 250 366.5 245 362.5 247.5C358.5 250 356.475 260 356.875 260C357.375 260 358.875 259 358.875 258.5C358.875 258 360.375 255 360.875 254.5C361.275 254.1 362.708 250.667 363.375 249L365.375 245L368.375 239.5L368.875 236.5V236L369.375 239.5L370.375 243V256L370.875 267L372.375 273.5V281.5L374.375 284.5V287C374.208 287.667 373.875 289.1 373.875 289.5C373.875 290 373.875 291 373.375 291.5C372.975 291.9 371.542 293 370.875 293.5L368.875 294L366.875 295V297L367.375 298.5L368.375 299L369.375 299.5L369.875 304L368.875 305.5L367.875 307L368.875 309L369.375 310.5L370.375 311.5L371.375 313V317.5L371.875 318V323L372.875 325L373.375 327.5L374.375 328.5L375.875 351.5L375.375 356.5C375.042 357.167 374.375 358.6 374.375 359C374.375 359.4 373.708 361.167 373.375 362L371.875 364.5L373.875 367.5L377.875 369.5L379.375 371V375.5C379.042 377.167 378.175 380.5 377.375 380.5C376.575 380.5 375.708 379.5 375.375 379H371.375L369.875 380.5L368.375 383L367.875 384.5V388L369.375 396L371.375 397.5M371.375 397.5C372.208 397.5 373.975 397.5 374.375 397.5M371.375 397.5H374.375M374.375 397.5C374.775 397.5 376.875 397.167 377.875 397L379.875 394.5L382.375 391L382.875 390L383.375 389L383.875 391.5L384.875 396V401L385.375 408L384.875 414.5L384.375 418.5L382.375 423.5L379.375 424L376.375 422.5H374.875L372.375 423.5C371.875 423.5 370.775 423.8 370.375 425C369.975 426.2 369.208 427.833 368.875 428.5L357.875 429L352.875 427H348.875L344.375 426L342.875 424.5M342.875 424.5C342.042 424.5 340.275 424.5 339.875 424.5M342.875 424.5H339.875M339.875 424.5C339.475 424.5 337.375 425.167 336.375 425.5L333.875 428L332.875 428.5L331.375 427L330.875 424.5L327.875 423H326.5L324.375 423.5L320.5 425L318.375 428L311.875 430L306.375 430.5H302.375L301.375 431.5L300.375 435.5L304.875 442L305.875 444.5L303.875 452.5L300.375 453.5L299.875 455.5L297.875 452.5L295.875 454C295.208 454.667 293.875 456.1 293.875 456.5C293.875 457 292.375 457.5 291.875 457.5M291.875 457.5C291.475 457.5 290.375 457.5 289.875 457.5M291.875 457.5H289.875M289.875 457.5L287.375 455.5C287.875 455.333 288.475 454.7 286.875 453.5C284.875 452 284.375 451.5 283.375 451.5M283.375 451.5C282.375 451.5 281.375 451.5 278.875 451.5M283.375 451.5H278.875M278.875 451.5C276.375 451.5 274.375 452 273.875 452.5C273.375 453 272.875 453 272.375 454C271.875 455 271.375 456 270.875 456.5C270.375 457 269.875 459 269.375 457.5C268.875 456 270.375 457 268.875 455C267.375 453 268.375 452.5 266.375 452.5M266.375 452.5C264.375 452.5 265.875 452.5 263.375 452.5M266.375 452.5H263.375M263.375 452.5C260.875 452.5 261.375 452 260.375 452.5C259.375 453 258.875 452.5 258.375 453.5C257.875 454.5 257.875 454 257.375 455.5C256.875 457 256.375 456.5 256.375 458C256.375 459.5 254.875 459 256.375 460.5M256.375 460.5C257.875 462 257.375 461.5 258.375 462.5M256.375 460.5L258.375 462.5" stroke="#9B0000" stroke-width="0.1"/>
<path d="M112.5 143.5L108.5 403L243.5 177.5L158.5 253L112.5 143.5Z" fill="#C4C4C4" stroke="#C4C4C4"/>
<path d="M122.5 27L111 140L159 252.5L244 177.5L105 409.5H261.5L243.5 446.5L369 409.5L355 234.5L257.5 164.5L294.5 55L190.5 111L122.5 27Z" fill="white" stroke="white"/>
</svg>
