<svg width="446" height="481" viewBox="0 0 446 481" fill="none" xmlns="http://www.w3.org/2000/svg">
<rect y="2" width="446" height="479" fill="black"/>
<path d="M111 38.5V10H125.5V12.5H116V27H120.5V22H127.5V34H130V36.5H140V34H142V29.5H140V22H135.5V10H145V51H149.5V55.5H158.5V51H168.5V53.5H166.5V55.5H164.5V61H171.5V55.5H173.5V59H176V65.5H178.5V73.5H181V78H183.5V80H178.5V92.5H181V94H193V99.5H195V97H203V94H207.5V92.5H212.5V90H214.5V88H227V51H251V55.5H232V70.5H241.5V65.5H256V61H252V59H249V56.5H265V51H285V55.5H294.5V51H300V56.5H296L294.5 58V65.5H300V85H297.5V82.5H294.5V75.5H290.5V85H292V82.5H293L294.5 84V94L283 95V97H280.5V99.5H273.5V109H277.5V114H275.5V119H277.5V120L283 121V119H285V114H290.5V109H297.5V107H294.5V95H300V123H294.5V119H287L285 121V123L278.5 124L277.5 122H275.5V123L263.5 124V145H260.5V148H256V157.5H260.5V167.5H275.5V172H285V179.5H287V183.5H292V181.5H294.5H296.5L297.5 174.5L294.5 172H290.5V167.5H294.5V170L300 176.5V196.5H294.5V203.5H311.5V205.5H338.5V215.5H347.5V220.5H355.5V223H353.5V227.5H351V233H355.5V230H357V227.5H360V230H362.5V235H357V237H355.5V239.5H353.5V245H351V251.5H348.5V254H346V261.5H352V257.5L355.5 256.5V249.5H357V245H360V239.5H362.5V276H365V285.5H367.5V295.5H365V298H360V302.5H362.5V315H365V327H367.5V373H372.5V385H362.5V399H372.5V394.5H377V428.5H362.5V433.5H338.5V430.5L328.5 431.5V433.5H324V428.5H314.5V433.5H312.5V436H294.5V442.5H299.5V458H294.5V460H293V458H290.5V460H287.5V462H280V458H265.5V462H261V458H251.5V467.5H261V472.5H239.5V469.5H236.5V467.5H234.5V465H236.5V460.5H234.5V458H230V455H227.5V433.5H210.5V431.5H208.5V428.5H205V426.5H201V433.5H196V426.5H184V424H179V426.5H176.5V428.5H167V426.5H165V424H160.5V426.5H157.5V431.5H155V433.5H140V428.5H120.5V433.5H101V428.5H98.5V426.5H96V424H94V421.5H91.5V424H89.5V428.5H87V421.5H84.5V419H91.5V409.5H82V406.5H84.5V405H91.5V403H94V399.5H96V336.5H94V330H96V162.5H73V155.5H74.5V153.5H77V157.5H86.5V109H91.5V102H84V99.5H81V97H84V98L85.5 99.5H89V97H91.5V92.5H89V90H98.5V88H106V70.5H108.5V38.5H111Z" fill="#9B0000" stroke="#9B0000"/>
<path d="M107 2H124.5V6H113V19H116.5L120.5 15H124.5V28.5L134.5 33V28.5H137V22L134.5 15V2L140 9.5L146.5 45L152 50.5L157.5 45H172L162 50.5L165 56.5L169 50.5L181 75L172 78.5L190.5 90L193.5 94L226.5 78.5V45H247L243 50.5L232 53.5V61H243H252L256.5 50.5L262 53.5V45H273L275 48L283 45V48H291.5L299 45V48L291.5 53.5L293.5 59L302 61L299 82L291.5 71.5L288 75L291.5 82L293.5 90L297 92L299 115H293.5L291.5 110.5H283L291.5 102.5L288 87H278.5V94H273L275 102.5V110.5L268.5 115L262 122V139.5H256.5V152.5L262 162.5H273V167.5H283V177L293.5 170.5L288 159.5H291.5L299 173.5L297 189.5L293.5 198L322.5 201H338V212H347.5L350.5 217L347.5 227L357 221.5L364.5 227L357 232.5L347.5 242.5V256.5L364.5 236.5V265.5L373.5 287L364.5 292.5L357 299H364.5L360 307.5L364.5 312L369 333V360L364.5 366L373.5 372.5L369 379.5H360V386.5L364.5 394.5L369 397.5L377 386.5V425H364.5L360 429H338L333.5 425L328 429L322.5 435L317.5 425L311.5 429H299L293.5 435L299 441.5L297 453V469L288 463L290.5 455.5L283 463L278.5 472.5V455.5L262 453V460L256.5 453H248.5V460L256.5 466H243L232 463L236.5 460L226.5 447V429H210.5L202 420L199 429L190.5 420L181 425V420L172 425H165L160.5 420L149.5 429H137V425H118V429H98.5L93.5 420L83 429V420L80.5 417.5H88V408L80.5 403L93.5 394.5V333L90.5 331.5V327L93.5 322.5V159.5L92 155L70 159.5V152.5L74 146.5V155L83 149.5L88 102.5L90.5 99.5L83 94L88 90V82L98.5 87L110 33L107 2Z" fill="#AF2F2F" stroke="#AF2F2F"/>
<path d="M101.5 138.5L97.5 398L232.5 172.5L147.5 248L101.5 138.5Z" fill="#C4C4C4" stroke="#C4C4C4"/>
<path d="M111.5 22L100 135L148 247.5L233 172.5L94 404.5H250.5L232.5 441.5L358 404.5L344 229.5L246.5 159.5L283.5 50L179.5 106L111.5 22Z" fill="white" stroke="white"/>
</svg>
